<svg xmlns="http://www.w3.org/2000/svg" viewBox="0 0 132 170" width="430" height="550">
  <path fill-rule="evenodd" clip-rule="evenodd" d="m 131 92 Q 132.265 92.821 132.256 95.0225 V 129.767 C 132.256 130.713 131.754 131.585 130.935 132.062 L 67.4443 168.648 C 67.299 168.73 67.1405 168.783 66.9819 168.84 C 66.9225 168.859 66.8663 168.896 66.8036 168.912 C 66.3597 169.029 65.8932 169.029 65.4494 168.912 C 65.3767 168.892 65.3107 168.853 65.2413 168.826 C 65.096 168.773 64.9441 168.727 64.8053 168.648 L 1.3277 132.062 C 0.9245 131.83 0.5894 131.495 0.3563 131.093 C 0.1232 130.69 0.0003 130.233 0 129.767 V 20.9409 C 0 20.7029 0.033 20.4714 0.0925 20.2466 C 0.1123 20.1706 0.1585 20.1011 0.185 20.0251 C 0.2345 19.8862 0.2807 19.7441 0.3534 19.6151 C 0.4029 19.5292 0.4756 19.4597 0.5351 19.3804 C 0.611 19.2746 0.6804 19.1655 0.7696 19.0729 C 0.8455 18.9969 0.9446 18.9407 1.0305 18.8745 C 1.1263 18.7952 1.2122 18.7092 1.3211 18.6464 H 1.3244 L 33.0649 0.3533 C 33.4668 0.1218 33.9223 0 34.386 0 C 34.8497 0 35.3053 0.1218 35.7072 0.3533 L 67.4476 18.6464 H 67.4542 C 67.5599 18.7125 67.6491 18.7952 67.7449 18.8712 C 67.8308 18.9374 67.9265 18.9969 68.0025 19.0696 C 68.095 19.1655 68.161 19.2746 68.2403 19.3804 C 68.2965 19.4597 68.3724 19.5292 68.4187 19.6151 C 68.4946 19.7474 68.5376 19.8862 68.5904 20.0251 C 68.6168 20.1011 68.6631 20.1706 68.6829 20.2499 C 68.7437 20.4752 68.7748 20.7075 68.7754 20.9409 V 88.9126 L 95.2246 73.6678 C 97.981 72.026 99.519 73.136 101 74 Z M 5.2912 25.52 V 128.236 L 63.4809 161.771 V 131.308 L 33.0814 114.086 L 33.0715 114.079 L 33.0583 114.073 C 32.9559 114.013 32.87 113.927 32.7742 113.854 C 32.6917 113.788 32.5959 113.735 32.5232 113.663 L 32.5166 113.653 C 32.4307 113.57 32.3713 113.468 32.2986 113.375 C 32.2326 113.286 32.1533 113.21 32.1005 113.117 L 32.0972 113.107 C 32.0377 113.008 32.0014 112.889 31.9584 112.777 C 31.9155 112.677 31.8593 112.585 31.8329 112.479 V 112.476 C 31.7999 112.35 31.7933 112.218 31.7801 112.089 C 31.7669 111.99 31.7404 111.891 31.7404 111.791 V 40.7648 L 5.2912 25.5233 V 25.52 Z M 34.3893 5.7027 L 7.9434 20.9409 L 34.3827 36.1791 L 60.8254 20.9376 L 34.3827 5.7027 H 34.3893 Z Z Z M 66.1232 126.725 L 124.296 93.4851 L 97.8735 78.2568 L 39.7234 111.768 L 66.1232 126.725 Z" fill="url(#paint_linear)"/>
  <defs>
    <linearGradient id="paint_linear" x1="1" y1="1" x2="100" y2="100" gradientUnits="userSpaceOnUse">
      <stop stop-color="#41D1FF"/>
      <stop offset="1" stop-color="#BD34FE"/>
    </linearGradient>
  </defs>
</svg>
